<?xml version="1.0" encoding="UTF-8" standalone="no"?>
<!-- Created with Inkscape (http://www.inkscape.org/) -->

<svg
   xmlns:dc="http://purl.org/dc/elements/1.1/"
   xmlns:cc="http://creativecommons.org/ns#"
   xmlns:rdf="http://www.w3.org/1999/02/22-rdf-syntax-ns#"
   xmlns:svg="http://www.w3.org/2000/svg"
   xmlns="http://www.w3.org/2000/svg"
   xmlns:sodipodi="http://sodipodi.sourceforge.net/DTD/sodipodi-0.dtd"
   xmlns:inkscape="http://www.inkscape.org/namespaces/inkscape"
   width="95.353752"
   height="101.19661"
   id="svg2"
   version="1.1"
   inkscape:version="0.48.4 r9939"
   sodipodi:docname="deuterium.svg">
  <defs
     id="defs4" />
  <sodipodi:namedview
     id="base"
     pagecolor="#ffffff"
     bordercolor="#666666"
     borderopacity="1.0"
     inkscape:pageopacity="0.0"
     inkscape:pageshadow="2"
     inkscape:zoom="1.4"
     inkscape:cx="-135.81318"
     inkscape:cy="34.653762"
     inkscape:document-units="px"
     inkscape:current-layer="layer1"
     showgrid="true"
     inkscape:window-width="1366"
     inkscape:window-height="717"
     inkscape:window-x="0"
     inkscape:window-y="26"
     inkscape:window-maximized="1"
     fit-margin-top="0"
     fit-margin-left="0"
     fit-margin-right="0"
     fit-margin-bottom="0">
    <inkscape:grid
       type="xygrid"
       id="grid3006"
       empspacing="5"
       visible="true"
       enabled="true"
       snapvisiblegridlinesonly="true"
       originx="-445.94319px"
       originy="-400.75931px" />
  </sodipodi:namedview>
  <metadata
     id="metadata7">
    <rdf:RDF>
      <cc:Work
         rdf:about="">
        <dc:format>image/svg+xml</dc:format>
        <dc:type
           rdf:resource="http://purl.org/dc/dcmitype/StillImage" />
        <dc:title />
      </cc:Work>
    </rdf:RDF>
  </metadata>
  <g
     inkscape:label="Layer 1"
     inkscape:groupmode="layer"
     id="layer1"
     transform="translate(-445.94319,-550.40625)">
    <rect
       style="fill:none;stroke:#000000;stroke-width:10;stroke-linecap:round;stroke-linejoin:round;stroke-miterlimit:4;stroke-opacity:1;stroke-dasharray:none"
       id="rect3004"
       width="77.861893"
       height="78.045692"
       x="453.3855"
       y="555.41803" />
    <path
       sodipodi:type="arc"
       style="fill:none;stroke:#000000;stroke-width:66.31150818;stroke-linecap:round;stroke-linejoin:round;stroke-miterlimit:4;stroke-opacity:1;stroke-dasharray:none"
       id="path3786"
       sodipodi:cx="380"
       sodipodi:cy="472.36218"
       sodipodi:rx="140"
       sodipodi:ry="140"
       d="m 520,472.36218 c 0,77.31987 -62.68014,140 -140,140 -77.31986,0 -140,-62.68013 -140,-140 0,-77.31986 62.68014,-140 140,-140 77.31986,0 140,62.68014 140,140 z"
       transform="matrix(0.07531285,0,0,0.07549063,447.47633,575.0415)" />
    <path
       sodipodi:type="arc"
       style="fill:#000000;fill-opacity:1;stroke:#000000;stroke-width:30.60531616;stroke-linecap:round;stroke-linejoin:round;stroke-miterlimit:4;stroke-opacity:1;stroke-dasharray:none"
       id="path3790"
       sodipodi:cx="380"
       sodipodi:cy="472.36218"
       sodipodi:rx="60"
       sodipodi:ry="60"
       d="m 440,472.36218 c 0,33.13709 -26.86292,60 -60,60 -33.13708,0 -60,-26.86291 -60,-60 0,-33.13708 26.86292,-60 60,-60 33.13708,0 60,26.86292 60,60 z"
       transform="matrix(0.08158891,0,0,0.08178151,445.09143,572.06992)" />
    <text
       xml:space="preserve"
       style="font-size:6.49614525px;font-style:normal;font-weight:normal;line-height:125%;letter-spacing:0px;word-spacing:0px;fill:#000000;fill-opacity:1;stroke:none;font-family:Sans"
       x="444.9881"
       y="650.58179"
       id="text3792"
       sodipodi:linespacing="125%"
       transform="scale(0.9988218,1.0011796)"><tspan
         sodipodi:role="line"
         id="tspan3794"
         x="444.9881"
         y="650.58179"
         style="font-size:19.48843575px;font-style:normal;font-variant:normal;font-stretch:normal;font-family:URW Gothic L;-inkscape-font-specification:URW Gothic L Book">Deuterium</tspan><tspan
         sodipodi:role="line"
         x="444.9881"
         y="674.94232"
         style="font-size:19.48843575px;font-style:normal;font-variant:normal;font-stretch:normal;font-family:URW Gothic L;-inkscape-font-specification:URW Gothic L Book"
         id="tspan4100" /></text>
    <path
       sodipodi:type="arc"
       style="fill:none;stroke:#000000;stroke-width:66.31150818;stroke-linecap:round;stroke-linejoin:round;stroke-miterlimit:4;stroke-opacity:1;stroke-dasharray:none"
       id="path3786-9"
       sodipodi:cx="380"
       sodipodi:cy="472.36218"
       sodipodi:rx="140"
       sodipodi:ry="140"
       d="m 520,472.36218 c 0,77.31987 -62.68014,140 -140,140 -77.31986,0 -140,-62.68013 -140,-140 0,-77.31986 62.68014,-140 140,-140 77.31986,0 140,62.68014 140,140 z"
       transform="matrix(0.07531285,0,0,0.07549063,479.91879,542.52246)" />
    <path
       sodipodi:type="arc"
       style="fill:#000000;fill-opacity:1;stroke:#000000;stroke-width:30.60531616;stroke-linecap:round;stroke-linejoin:round;stroke-miterlimit:4;stroke-opacity:1;stroke-dasharray:none"
       id="path3790-0"
       sodipodi:cx="380"
       sodipodi:cy="472.36218"
       sodipodi:rx="60"
       sodipodi:ry="60"
       d="m 440,472.36218 c 0,33.13709 -26.86292,60 -60,60 -33.13708,0 -60,-26.86291 -60,-60 0,-33.13708 26.86292,-60 60,-60 33.13708,0 60,26.86292 60,60 z"
       transform="matrix(0.08158891,0,0,0.08178151,477.53388,539.55088)" />
    <path
       style="fill:none;stroke:#000000;stroke-width:1;stroke-linecap:butt;stroke-linejoin:miter;stroke-miterlimit:4;stroke-opacity:1;stroke-dasharray:none"
       d="m 476.90627,609.88744 34.87564,-34.95797"
       id="path4102"
       inkscape:connector-curvature="0" />
    <path
       sodipodi:type="arc"
       style="fill:#000000;fill-opacity:1;stroke:#000000;stroke-width:40.22061157;stroke-linecap:round;stroke-linejoin:round;stroke-miterlimit:4;stroke-opacity:1;stroke-dasharray:none"
       id="path4104"
       sodipodi:cx="-540"
       sodipodi:cy="52.362183"
       sodipodi:rx="60"
       sodipodi:ry="40"
       d="m -480,52.362183 c 0,22.09139 -26.86292,40 -60,40 -33.13708,0 -60,-17.90861 -60,-40 0,-22.09139 26.86292,-40 60,-40 33.13708,0 60,17.90861 60,40 z"
       transform="matrix(0.02027653,0,0,0.0304866,503.18467,592.92584)" />
  </g>
</svg>
